<mxfile host="Electron" modified="2023-11-20T20:56:04.813Z" agent="Mozilla/5.0 (Windows NT 10.0; Win64; x64) AppleWebKit/537.36 (KHTML, like Gecko) draw.io/21.6.8 Chrome/114.0.5735.289 Electron/25.5.0 Safari/537.36" etag="_FoL4zTPT2J_iSN0h4sm" version="21.6.8" type="device">
  <diagram name="Página-1" id="zlpLqexIDQcCmuWZqZMz">
    <mxGraphModel dx="929" dy="582" grid="1" gridSize="10" guides="1" tooltips="1" connect="1" arrows="1" fold="1" page="1" pageScale="1" pageWidth="827" pageHeight="1169" math="0" shadow="0">
      <root>
        <mxCell id="0" />
        <mxCell id="1" parent="0" />
        <mxCell id="GM833KgwuqRHKojBpSRT-31" value="" style="shape=ellipse;html=1;dashed=0;whiteSpace=wrap;perimeter=ellipsePerimeter;" vertex="1" parent="1">
          <mxGeometry x="139" y="100" width="550" height="440" as="geometry" />
        </mxCell>
        <mxCell id="GM833KgwuqRHKojBpSRT-36" style="edgeStyle=orthogonalEdgeStyle;rounded=0;orthogonalLoop=1;jettySize=auto;html=1;exitX=0.5;exitY=1;exitDx=0;exitDy=0;entryX=0;entryY=0.5;entryDx=0;entryDy=0;" edge="1" parent="1" source="GM833KgwuqRHKojBpSRT-32" target="GM833KgwuqRHKojBpSRT-34">
          <mxGeometry relative="1" as="geometry" />
        </mxCell>
        <mxCell id="GM833KgwuqRHKojBpSRT-37" value="codTasks + Títulos + Data Entrega&amp;nbsp;&lt;br&gt;e Dados Opcionais" style="edgeLabel;html=1;align=center;verticalAlign=middle;resizable=0;points=[];" vertex="1" connectable="0" parent="GM833KgwuqRHKojBpSRT-36">
          <mxGeometry x="-0.5636" relative="1" as="geometry">
            <mxPoint as="offset" />
          </mxGeometry>
        </mxCell>
        <mxCell id="GM833KgwuqRHKojBpSRT-32" value="Task" style="html=1;dashed=0;whiteSpace=wrap;shape=partialRectangle;right=0;" vertex="1" parent="1">
          <mxGeometry x="60" y="100" width="100" height="30" as="geometry" />
        </mxCell>
        <mxCell id="GM833KgwuqRHKojBpSRT-41" value="" style="edgeStyle=orthogonalEdgeStyle;rounded=0;orthogonalLoop=1;jettySize=auto;html=1;" edge="1" parent="1" source="GM833KgwuqRHKojBpSRT-34" target="GM833KgwuqRHKojBpSRT-40">
          <mxGeometry relative="1" as="geometry" />
        </mxCell>
        <mxCell id="GM833KgwuqRHKojBpSRT-34" value="Identifcar Tasks&lt;br&gt;Recebidas" style="shape=ellipse;html=1;dashed=0;whiteSpace=wrap;perimeter=ellipsePerimeter;" vertex="1" parent="1">
          <mxGeometry x="220" y="190" width="120" height="50" as="geometry" />
        </mxCell>
        <mxCell id="GM833KgwuqRHKojBpSRT-35" value="&lt;font style=&quot;font-size: 15px;&quot;&gt;9. Exportar Dados&lt;/font&gt;" style="text;html=1;strokeColor=none;fillColor=none;align=center;verticalAlign=middle;whiteSpace=wrap;rounded=0;" vertex="1" parent="1">
          <mxGeometry x="347" y="122" width="134" height="30" as="geometry" />
        </mxCell>
        <mxCell id="GM833KgwuqRHKojBpSRT-48" style="edgeStyle=orthogonalEdgeStyle;rounded=0;orthogonalLoop=1;jettySize=auto;html=1;exitX=0.5;exitY=1;exitDx=0;exitDy=0;entryX=0;entryY=0.5;entryDx=0;entryDy=0;" edge="1" parent="1" source="GM833KgwuqRHKojBpSRT-40" target="GM833KgwuqRHKojBpSRT-46">
          <mxGeometry relative="1" as="geometry" />
        </mxCell>
        <mxCell id="GM833KgwuqRHKojBpSRT-49" value="codTasks + Dados" style="edgeLabel;html=1;align=center;verticalAlign=middle;resizable=0;points=[];" vertex="1" connectable="0" parent="GM833KgwuqRHKojBpSRT-48">
          <mxGeometry x="-0.3655" relative="1" as="geometry">
            <mxPoint as="offset" />
          </mxGeometry>
        </mxCell>
        <mxCell id="GM833KgwuqRHKojBpSRT-40" value="Agrupar Dados&lt;br&gt;por codTask" style="shape=ellipse;html=1;dashed=0;whiteSpace=wrap;perimeter=ellipsePerimeter;" vertex="1" parent="1">
          <mxGeometry x="220" y="350" width="120" height="50" as="geometry" />
        </mxCell>
        <mxCell id="GM833KgwuqRHKojBpSRT-43" value="codTasks + Títulos + Data Entrega&amp;nbsp;&lt;br&gt;e Dados Opcionais" style="edgeLabel;html=1;align=center;verticalAlign=middle;resizable=0;points=[];" vertex="1" connectable="0" parent="1">
          <mxGeometry x="280" y="289.99727272727273" as="geometry" />
        </mxCell>
        <mxCell id="GM833KgwuqRHKojBpSRT-54" style="edgeStyle=orthogonalEdgeStyle;rounded=0;orthogonalLoop=1;jettySize=auto;html=1;exitX=0;exitY=0;exitDx=0;exitDy=0;entryX=0;entryY=1;entryDx=0;entryDy=0;" edge="1" parent="1" source="GM833KgwuqRHKojBpSRT-44" target="GM833KgwuqRHKojBpSRT-47">
          <mxGeometry relative="1" as="geometry" />
        </mxCell>
        <mxCell id="GM833KgwuqRHKojBpSRT-56" value="Arquivo JSON&amp;nbsp;" style="edgeLabel;html=1;align=center;verticalAlign=middle;resizable=0;points=[];" vertex="1" connectable="0" parent="GM833KgwuqRHKojBpSRT-54">
          <mxGeometry x="0.0946" relative="1" as="geometry">
            <mxPoint as="offset" />
          </mxGeometry>
        </mxCell>
        <mxCell id="GM833KgwuqRHKojBpSRT-55" style="edgeStyle=orthogonalEdgeStyle;rounded=0;orthogonalLoop=1;jettySize=auto;html=1;exitX=1;exitY=0;exitDx=0;exitDy=0;entryX=1;entryY=1;entryDx=0;entryDy=0;" edge="1" parent="1" source="GM833KgwuqRHKojBpSRT-44" target="GM833KgwuqRHKojBpSRT-47">
          <mxGeometry relative="1" as="geometry" />
        </mxCell>
        <mxCell id="GM833KgwuqRHKojBpSRT-57" value="Arquivo XML" style="edgeLabel;html=1;align=center;verticalAlign=middle;resizable=0;points=[];" vertex="1" connectable="0" parent="GM833KgwuqRHKojBpSRT-55">
          <mxGeometry x="0.08" relative="1" as="geometry">
            <mxPoint as="offset" />
          </mxGeometry>
        </mxCell>
        <mxCell id="GM833KgwuqRHKojBpSRT-44" value="Serializar Dados" style="shape=ellipse;html=1;dashed=0;whiteSpace=wrap;perimeter=ellipsePerimeter;" vertex="1" parent="1">
          <mxGeometry x="481" y="350" width="120" height="50" as="geometry" />
        </mxCell>
        <mxCell id="GM833KgwuqRHKojBpSRT-50" style="edgeStyle=orthogonalEdgeStyle;rounded=0;orthogonalLoop=1;jettySize=auto;html=1;exitX=1;exitY=0.5;exitDx=0;exitDy=0;entryX=0.5;entryY=1;entryDx=0;entryDy=0;" edge="1" parent="1" source="GM833KgwuqRHKojBpSRT-46" target="GM833KgwuqRHKojBpSRT-44">
          <mxGeometry relative="1" as="geometry" />
        </mxCell>
        <mxCell id="GM833KgwuqRHKojBpSRT-51" value="codTasks + Dados" style="edgeLabel;html=1;align=center;verticalAlign=middle;resizable=0;points=[];" vertex="1" connectable="0" parent="GM833KgwuqRHKojBpSRT-50">
          <mxGeometry x="0.4238" y="-1" relative="1" as="geometry">
            <mxPoint as="offset" />
          </mxGeometry>
        </mxCell>
        <mxCell id="GM833KgwuqRHKojBpSRT-46" value="Formatar Dados" style="shape=ellipse;html=1;dashed=0;whiteSpace=wrap;perimeter=ellipsePerimeter;" vertex="1" parent="1">
          <mxGeometry x="354" y="450" width="120" height="50" as="geometry" />
        </mxCell>
        <mxCell id="GM833KgwuqRHKojBpSRT-59" value="" style="edgeStyle=orthogonalEdgeStyle;rounded=0;orthogonalLoop=1;jettySize=auto;html=1;" edge="1" parent="1" source="GM833KgwuqRHKojBpSRT-47" target="GM833KgwuqRHKojBpSRT-58">
          <mxGeometry relative="1" as="geometry" />
        </mxCell>
        <mxCell id="GM833KgwuqRHKojBpSRT-60" value="Formato Escolhido" style="edgeLabel;html=1;align=center;verticalAlign=middle;resizable=0;points=[];" vertex="1" connectable="0" parent="GM833KgwuqRHKojBpSRT-59">
          <mxGeometry x="0.6192" y="1" relative="1" as="geometry">
            <mxPoint as="offset" />
          </mxGeometry>
        </mxCell>
        <mxCell id="GM833KgwuqRHKojBpSRT-47" value="Validar Formato&amp;nbsp;&lt;br&gt;de Arquivo" style="shape=ellipse;html=1;dashed=0;whiteSpace=wrap;perimeter=ellipsePerimeter;" vertex="1" parent="1">
          <mxGeometry x="481" y="190" width="120" height="50" as="geometry" />
        </mxCell>
        <mxCell id="GM833KgwuqRHKojBpSRT-58" value="Usuário" style="whiteSpace=wrap;html=1;dashed=0;" vertex="1" parent="1">
          <mxGeometry x="681" y="62" width="120" height="60" as="geometry" />
        </mxCell>
      </root>
    </mxGraphModel>
  </diagram>
</mxfile>
